<?xml version="1.0" encoding="utf-8"?>
<!-- Generator: Adobe Illustrator 23.0.2, SVG Export Plug-In . SVG Version: 6.00 Build 0)  -->
<svg version="1.1" id="Outline" xmlns="http://www.w3.org/2000/svg" xmlns:xlink="http://www.w3.org/1999/xlink" x="0px" y="0px"
	 viewBox="0 0 512 512" style="enable-background:new 0 0 512 512;" xml:space="preserve">
<style type="text/css">
	.st0{fill:#FFFFFF;}
</style>
<path class="st0" d="M511,262.4l-15-106.7c-7.6-52.5-52.5-91.5-105.5-91.7H106.7C47.8,64.1,0.1,111.8,0,170.7v106.7
	C0.1,336.2,47.8,383.9,106.7,384h57.9l40.8,82.7c15.8,32.1,54.6,45.3,86.7,29.5c25.6-12.6,40-40.5,35.3-68.7l-7.2-43.5h85.1
	c58.9,0,106.7-47.8,106.7-106.7C512,272.3,511.7,267.3,511,262.4z M106.7,106.7h42.7v234.7h-42.7c-35.3,0-64-28.7-64-64V170.7
	C42.7,135.3,71.3,106.7,106.7,106.7z M453.6,319.3c-12.2,14-29.8,22-48.3,22H295.1c-11.8,0-21.3,9.5-21.3,21.3
	c0,1.2,0.1,2.3,0.3,3.5l11.3,68.3c1.1,6.4-0.7,13-5,17.9c-8.6,9.2-23,9.8-32.3,1.2c-1.8-1.7-3.3-3.6-4.5-5.7l-46.7-94.5
	c-1.2-2.4-2.9-4.5-4.9-6.2V106.7h198.4c31.8,0.1,58.8,23.5,63.4,55.1l15.1,106.7C471.4,286.8,465.8,305.3,453.6,319.3z"/>
</svg>
