<?xml version="1.0" encoding="utf-8"?>
<!-- Generator: Adobe Illustrator 23.0.2, SVG Export Plug-In . SVG Version: 6.00 Build 0)  -->
<svg version="1.1" id="Outline" xmlns="http://www.w3.org/2000/svg" xmlns:xlink="http://www.w3.org/1999/xlink" x="0px" y="0px"
	 viewBox="0 0 512 512" style="enable-background:new 0 0 512 512;" xml:space="preserve">
<style type="text/css">
	.st0{fill:#FFFFFF;}
</style>
<path class="st0" d="M485.8,164.7c-20.2-23.3-49.6-36.7-80.5-36.7h-85.1l7.2-43.5c5.8-35.3-18-68.7-53.3-74.5
	c-28.2-4.7-56.1,9.7-68.7,35.3L164.5,128h-57.9C47.8,128.1,0.1,175.8,0,234.7v106.7C0.1,400.2,47.8,447.9,106.7,448h283.7
	c53.1-0.2,98-39.2,105.6-91.7l15-106.7C515.3,219,506.1,188,485.8,164.7z M42.7,341.3V234.7c0-35.3,28.7-64,64-64h42.7v234.7h-42.7
	C71.3,405.3,42.7,376.7,42.7,341.3z M468.7,243.6l-15.1,106.7c-4.6,31.5-31.4,54.9-63.3,55.1H192V165c2-1.8,3.7-3.9,4.9-6.2
	l46.7-94.6c6.1-11,20-15,31-8.9c2.1,1.2,4.1,2.7,5.7,4.5c4.2,4.9,6.1,11.5,5,17.9L274,145.9c-1.9,11.6,6,22.6,17.6,24.5
	c1.1,0.2,2.3,0.3,3.4,0.3h110.2c35.3,0,64,28.6,64,64C469.3,237.7,469.1,240.6,468.7,243.6L468.7,243.6z"/>
</svg>
