<?xml version="1.0" encoding="utf-8"?>
<!-- Generator: Adobe Illustrator 23.0.2, SVG Export Plug-In . SVG Version: 6.00 Build 0)  -->
<svg version="1.1" id="Outline" xmlns="http://www.w3.org/2000/svg" xmlns:xlink="http://www.w3.org/1999/xlink" x="0px" y="0px"
	 viewBox="0 0 512 512" style="enable-background:new 0 0 512 512;" xml:space="preserve">
<style type="text/css">
	.st0{fill:#FFFFFF;}
</style>
<path class="st0" d="M505.7,475.6L378.4,348.2c74.7-91.4,61.2-226-30.2-300.7s-226-61.2-300.7,30.2s-61.2,226,30.2,300.7
	c78.7,64.3,191.8,64.3,270.5,0l127.3,127.3c8.5,8.2,22,8,30.2-0.5C513.7,497,513.7,483.9,505.7,475.6z M213.3,384
	c-94.3,0-170.7-76.4-170.7-170.7S119.1,42.7,213.3,42.7S384,119.1,384,213.3C383.9,307.5,307.5,383.9,213.3,384z"/>
</svg>
