<svg xmlns="http://www.w3.org/2000/svg" viewBox="0 0 345.32 82.01">
  <defs>
    <style>
      .cls-1, .cls-3 {
        font-size: 72px;
      }

      .cls-1, .cls-3, .cls-4 {
        fill: #fff;
      }

      .cls-1 {
        font-family: Montserrat-Bold, Montserrat;
        font-weight: 700;
      }

      .cls-2 {
        letter-spacing: -0.02em;
      }

      .cls-3 {
        font-family: Montserrat-Regular, Montserrat;
      }

      .cls-5 {
        fill: none;
        stroke: #fff;
        stroke-miterlimit: 10;
      }
    </style>
  </defs>
  <g id="Слой_1" data-name="Слой 1">
    <text class="cls-1" transform="translate(0 62.57)">M<tspan class="cls-2" x="68.76" y="0">e</tspan><tspan x="113.11" y="0">at</tspan></text>
    <text class="cls-3" transform="translate(236.17 63.14)">On</text>
  </g>
  <g id="Слой_2" data-name="Слой 2">
    <path class="cls-4" d="M239.15,13.08c1.17-1.6,3.7-9.36,2.32-13.08l-36,42.89-14.43,17.2,2.13,1.79L207.37,45a.39.39,0,0,1,.55,0l2.36,2a.59.59,0,0,0,.83-.07C214.24,43.15,235.68,17.8,239.15,13.08Z"/>
    <g>
      <path class="cls-4" d="M215,19a1.44,1.44,0,0,1-1.37-1.45h-.79a2.16,2.16,0,1,0,4.32,0h-.79A1.44,1.44,0,0,1,215,19Z"/>
      <polygon class="cls-4" points="212.26 16.17 217.74 16.17 221.28 7.7 208.72 7.7 212.26 16.17"/>
      <polygon class="cls-4" points="223.66 1.42 220.19 4.32 210.02 4.32 206.55 1.42 202.35 1.42 207.73 5.9 222.27 5.9 227.65 1.42 223.66 1.42"/>
    </g>
    <circle class="cls-5" cx="215" cy="60.63" r="10.83"/>
    <ellipse class="cls-5" cx="215" cy="60.63" rx="6.32" ry="10.83"/>
    <ellipse class="cls-5" cx="215" cy="60.63" rx="0.31" ry="10.83"/>
    <path class="cls-4" d="M225.61,58.43a18.87,18.87,0,0,1-21.38.1,4,4,0,0,1-.12,1.2.46.46,0,0,1-.07.16A21.25,21.25,0,0,0,226,59.7,2.9,2.9,0,0,1,225.61,58.43Z"/>
    <g>
      <path class="cls-4" d="M213.26,31.3,204.1,20.38l2.44-2a2.54,2.54,0,0,0,.4-3.57L194.86.37a.25.25,0,0,0-.35,0l-1.12.94a.24.24,0,0,0,0,.35l11,13.07a1,1,0,0,1-.15,1.38l-1.39,1.16a1,1,0,0,1-1.38-.09l-11-13.08a.25.25,0,0,0-.35,0l-1.75,1.47a.24.24,0,0,0,0,.34l11,13.08a1,1,0,0,1-.15,1.38l-1.39,1.16a1,1,0,0,1-1.38-.09l-11-13.08a.25.25,0,0,0-.35,0l-1.12.95a.23.23,0,0,0,0,.34L196,24a2.53,2.53,0,0,0,3.58.22l2.44-2,9.48,11.29Z"/>
      <path class="cls-4" d="M238,60.72,219.2,38.37l-1.82,2.17,18.44,22a.39.39,0,0,0,.56,0l1.51-1.27A.39.39,0,0,0,238,60.72Z"/>
    </g>
  </g>
</svg>
